<mxfile host="app.diagrams.net" modified="2022-10-30T09:16:37.233Z" agent="5.0 (Windows NT 10.0; Win64; x64) AppleWebKit/537.36 (KHTML, like Gecko) Chrome/106.0.0.0 Safari/537.36" etag="OXebT50eSkuMqrAK2G5w" version="20.5.1" type="github">
  <diagram id="EmXyW7qWi83DQ8ZEt08_" name="第 1 页">
    <mxGraphModel dx="898" dy="481" grid="0" gridSize="10" guides="1" tooltips="1" connect="1" arrows="1" fold="1" page="1" pageScale="1" pageWidth="4681" pageHeight="3300" math="0" shadow="0">
      <root>
        <mxCell id="0" />
        <mxCell id="1" parent="0" />
        <mxCell id="LTvcoMtKOkWyJTOPSaD0-1" value="U2" style="rounded=1;whiteSpace=wrap;html=1;" vertex="1" parent="1">
          <mxGeometry x="345" y="435" width="60" height="60" as="geometry" />
        </mxCell>
        <mxCell id="LTvcoMtKOkWyJTOPSaD0-2" value="U1" style="rounded=1;whiteSpace=wrap;html=1;" vertex="1" parent="1">
          <mxGeometry x="345" y="524" width="60" height="60" as="geometry" />
        </mxCell>
        <mxCell id="LTvcoMtKOkWyJTOPSaD0-11" style="edgeStyle=orthogonalEdgeStyle;rounded=0;orthogonalLoop=1;jettySize=auto;html=1;entryX=0;entryY=0.5;entryDx=0;entryDy=0;" edge="1" parent="1" source="LTvcoMtKOkWyJTOPSaD0-3" target="LTvcoMtKOkWyJTOPSaD0-1">
          <mxGeometry relative="1" as="geometry">
            <Array as="points">
              <mxPoint x="298" y="465" />
            </Array>
          </mxGeometry>
        </mxCell>
        <mxCell id="LTvcoMtKOkWyJTOPSaD0-3" value="U4" style="rounded=1;whiteSpace=wrap;html=1;" vertex="1" parent="1">
          <mxGeometry x="286" y="357" width="60" height="60" as="geometry" />
        </mxCell>
        <mxCell id="LTvcoMtKOkWyJTOPSaD0-4" value="U3" style="rounded=1;whiteSpace=wrap;html=1;" vertex="1" parent="1">
          <mxGeometry x="192" y="357" width="60" height="60" as="geometry" />
        </mxCell>
        <mxCell id="LTvcoMtKOkWyJTOPSaD0-14" style="edgeStyle=orthogonalEdgeStyle;rounded=0;orthogonalLoop=1;jettySize=auto;html=1;entryX=1;entryY=0.5;entryDx=0;entryDy=0;" edge="1" parent="1" source="LTvcoMtKOkWyJTOPSaD0-5" target="LTvcoMtKOkWyJTOPSaD0-1">
          <mxGeometry relative="1" as="geometry">
            <Array as="points">
              <mxPoint x="453" y="465" />
            </Array>
          </mxGeometry>
        </mxCell>
        <mxCell id="LTvcoMtKOkWyJTOPSaD0-5" value="U5" style="rounded=1;whiteSpace=wrap;html=1;" vertex="1" parent="1">
          <mxGeometry x="420" y="357" width="60" height="60" as="geometry" />
        </mxCell>
        <mxCell id="LTvcoMtKOkWyJTOPSaD0-15" style="edgeStyle=orthogonalEdgeStyle;rounded=0;orthogonalLoop=1;jettySize=auto;html=1;entryX=1;entryY=0.5;entryDx=0;entryDy=0;" edge="1" parent="1" source="LTvcoMtKOkWyJTOPSaD0-6" target="LTvcoMtKOkWyJTOPSaD0-1">
          <mxGeometry relative="1" as="geometry">
            <Array as="points">
              <mxPoint x="535" y="465" />
            </Array>
          </mxGeometry>
        </mxCell>
        <mxCell id="LTvcoMtKOkWyJTOPSaD0-6" value="U6" style="rounded=1;whiteSpace=wrap;html=1;" vertex="1" parent="1">
          <mxGeometry x="505" y="357" width="60" height="60" as="geometry" />
        </mxCell>
        <mxCell id="LTvcoMtKOkWyJTOPSaD0-8" value="" style="endArrow=classic;startArrow=classic;html=1;rounded=0;entryX=0.5;entryY=1;entryDx=0;entryDy=0;exitX=0.5;exitY=0;exitDx=0;exitDy=0;" edge="1" parent="1" source="LTvcoMtKOkWyJTOPSaD0-2" target="LTvcoMtKOkWyJTOPSaD0-1">
          <mxGeometry width="50" height="50" relative="1" as="geometry">
            <mxPoint x="423.5" y="532" as="sourcePoint" />
            <mxPoint x="473.5" y="482" as="targetPoint" />
          </mxGeometry>
        </mxCell>
        <mxCell id="LTvcoMtKOkWyJTOPSaD0-10" value="" style="edgeStyle=segmentEdgeStyle;endArrow=classic;html=1;rounded=0;exitX=0.5;exitY=1;exitDx=0;exitDy=0;entryX=0;entryY=0.5;entryDx=0;entryDy=0;" edge="1" parent="1" source="LTvcoMtKOkWyJTOPSaD0-4" target="LTvcoMtKOkWyJTOPSaD0-1">
          <mxGeometry width="50" height="50" relative="1" as="geometry">
            <mxPoint x="234" y="432" as="sourcePoint" />
            <mxPoint x="290" y="474" as="targetPoint" />
            <Array as="points">
              <mxPoint x="222" y="465" />
            </Array>
          </mxGeometry>
        </mxCell>
        <mxCell id="LTvcoMtKOkWyJTOPSaD0-16" value="" style="endArrow=classic;startArrow=classic;html=1;rounded=0;entryX=0.5;entryY=1;entryDx=0;entryDy=0;exitX=0.5;exitY=0;exitDx=0;exitDy=0;" edge="1" parent="1" source="LTvcoMtKOkWyJTOPSaD0-17" target="LTvcoMtKOkWyJTOPSaD0-2">
          <mxGeometry width="50" height="50" relative="1" as="geometry">
            <mxPoint x="377" y="647" as="sourcePoint" />
            <mxPoint x="399" y="610" as="targetPoint" />
          </mxGeometry>
        </mxCell>
        <mxCell id="LTvcoMtKOkWyJTOPSaD0-17" value="U7" style="rounded=1;whiteSpace=wrap;html=1;" vertex="1" parent="1">
          <mxGeometry x="345" y="615" width="60" height="60" as="geometry" />
        </mxCell>
        <mxCell id="LTvcoMtKOkWyJTOPSaD0-19" style="edgeStyle=orthogonalEdgeStyle;rounded=0;orthogonalLoop=1;jettySize=auto;html=1;entryX=0;entryY=0.5;entryDx=0;entryDy=0;" edge="1" parent="1" source="LTvcoMtKOkWyJTOPSaD0-18" target="LTvcoMtKOkWyJTOPSaD0-17">
          <mxGeometry relative="1" as="geometry" />
        </mxCell>
        <mxCell id="LTvcoMtKOkWyJTOPSaD0-18" value="U8" style="rounded=1;whiteSpace=wrap;html=1;" vertex="1" parent="1">
          <mxGeometry x="246" y="615" width="60" height="60" as="geometry" />
        </mxCell>
      </root>
    </mxGraphModel>
  </diagram>
</mxfile>
